Patient4_TMGait_0pt6_01_left_31_EMG.mot
version=1
nRows=30
nColumns=33
inDegrees=no
endheader
time	1LAddLong	2LGlutMax	3LGlutMed	4LIliopsoas	5LSemiMemb	6LBicFemLong	7LRecFem	8LVastMed	9LVastLat	10LGasMed	11LTibAnt	12lTibPost	13LPeroneusLong	14LSol	15LExtDigLong	16LFlexDigLong	17RAddLong	18RGlutMax	19RGlutMed	20RIliopsoas	21RSemiMemb	22RBicFemLong	23RRecFem	24RVastMed	25RVastLat	26RGasMed	27RTibAnt	28RTibPost	29RPeroneusLong	30RSol	31RExtDigLong	32RFlexDigLong
38.515	0.025482	-0.058594	0.10544	0.012207	-0.013428	0.17288	-0.13763	0.010529	-0.00885	2.1329	-0.003052	0.12787	0.014191	0.18219	-0.059357	0.15091	-0.083466	-0.20248	-0.6221	0.025024	0.3038	0.11307	0.11597	0.37872	-0.43686	0	-0.003662	-0.006409	-0.041046	-0.01709	-0.004578	-0.007782
38.516	0.017395	-0.072937	0.12558	0.006104	-0.02121	0.10071	-0.12695	0.007324	-0.019226	1.0884	-0.02533	-0.31784	0.055237	0.07309	-0.063629	-0.23514	-0.049591	-0.16586	-0.36789	-0.032196	0.18951	0.018616	0.13992	0.28458	-0.17777	0.002899	0.088959	-0.005493	-0.033875	-0.025482	-0.006714	-0.012054
38.517	0.017395	-0.066681	0.12878	0.014801	-0.011749	-0.004425	-0.11353	0.000153	-0.013885	-0.3215	-0.014038	0.015717	0.1535	0.25406	-0.05661	-0.15503	-0.019073	-0.099792	-0.23666	-0.081787	0.11978	-0.063171	-0.042267	0.18066	-0.026245	-0.006714	0.10513	-0.003967	0.021667	-0.027924	-0.002899	-0.014954
38.518	0.020447	-0.003204	0.17487	0.015717	-0.013885	-0.031128	-0.11856	0.000916	-0.012054	-1.5073	0.009003	-0.10422	0.053406	0.3923	-0.1329	-0.047302	0.005798	-0.085754	0.062408	-0.014343	0.17242	-0.040131	-0.097961	-0.013428	-0.092773	-0.002289	0.009003	-0.006256	0.13779	-0.028229	0.001831	-0.011292
38.519	0.021057	-0.005493	0.22492	0.007324	-0.013733	-0.022888	-0.11704	-0.002441	-0.018158	-2.0244	0.010681	-0.094757	0.066833	0.29923	-0.14893	0.048065	0.036011	-0.054321	0.72449	-0.069427	0.20981	-0.082855	-0.039368	-0.11139	-0.083466	0.002136	0.068207	-0.004578	0.11673	-0.054016	-0.005798	-0.005493
38.52	0.010529	-0.015411	0.2713	0.012665	0.001984	-0.052795	-0.10223	-0.003815	0.009308	-1.4687	0.011444	0.14267	0.074463	-0.15381	-0.085144	-0.28107	-0.005646	-0.002441	1.0107	-0.23941	0.29297	-0.007477	0.019379	-0.082703	0.46829	0.009766	0.067139	-0.003204	0.000153	-0.060883	-0.007172	0.001373
38.521	0.019226	-0.037842	0.25207	0.014801	-0.008392	-0.079803	-0.0914	-0.003967	-0.018921	-1.1235	0.018158	0.70969	-0.034027	-0.36636	-0.090027	0.32791	-0.061035	0.019836	0.77713	-0.18921	-0.08606	0.009308	0.001984	-0.1828	0.61859	-0.001526	0.058746	-0.00946	-0.12772	-0.067139	-0.000153	-0.003052
38.522	0.010071	-0.024109	0.24414	0.006561	0.012512	-0.067902	-0.064545	0.003204	-0.036926	-0.79361	0.029602	0.2626	-0.15823	-0.17792	-0.1207	0.30548	-0.025787	-0.01236	0.090942	-0.025482	0.11459	-0.030975	-0.046997	-0.22446	0.44784	-0.002289	0.10834	-0.006561	-0.15549	-0.077362	-0.001221	0.001831
38.523	0.010529	-0.03006	0.35278	0.004578	0.026703	0.020905	-0.063171	0.001678	-0.041199	-0.61111	0.019379	-0.071869	-0.11154	-0.018616	-0.087128	-0.53253	-0.025635	-0.078583	-0.079651	0.12253	0.097504	0.1268	-0.19501	-0.16968	0.20828	-0.001373	0.089417	-0.001831	-0.090942	-0.039063	-0.001526	0.001678
38.524	0.014648	-0.030975	0.35172	0	0.019684	0.12543	-0.079651	-0.002136	-0.026093	-0.51071	0.007629	-0.15488	-0.17777	0.40909	-0.061798	0.35965	-0.028534	-0.14557	-0.12802	0.27679	0.042419	0.26977	-0.38864	-0.21622	0.011749	-0.001526	0.066528	-0.003815	-0.028687	-0.009613	-0.000458	-0.003204
38.525	0.013428	0.004883	0.35309	-0.000763	0.001221	0.092621	-0.073395	0.005188	-0.040283	-0.31464	0.013733	-0.13901	-0.12726	0.73242	-0.002441	-0.16632	-0.020752	-0.14542	-0.09201	0.28564	0.071106	0.27771	-0.37201	-0.16678	0.007629	0.000763	0.05188	0.000153	0.032501	0.0354	-0.003815	-0.003815
38.526	0.003357	0.026245	0.3566	0.015106	-0.015717	0.10346	-0.056152	0.010071	-0.039063	-0.22018	0.008392	-0.11231	-0.10895	0.88272	0.043335	0.10498	-0.018921	-0.10468	-0.048065	0.28839	0.024414	0.21393	-0.32577	-0.10849	-0.059662	-0.005798	0.048981	0.000305	-0.062256	0.00885	0.001068	-0.005035
38.527	0.012054	0.032501	0.37552	0.030365	-0.014648	0.06424	-0.039825	0.00885	-0.036163	-0.13275	0.010529	-0.040741	-0.049591	0.57342	0.027466	0.3035	-0.003815	-0.029907	-0.000153	0.12985	0.038452	0.20508	-0.17105	-0.01358	0.045319	0.008698	0.029297	-0.001678	-0.17212	-0.017548	-0.000916	-0.002136
38.528	0.010529	-0.015869	0.40207	0.026398	0.00885	-0.046082	-0.070038	0.005188	-0.032806	-0.062866	0.016327	-0.033569	-0.023041	0.19272	0.018158	-0.17273	0.033264	-0.17197	-0.059204	-0.001068	0.03418	0.15442	-0.09964	0.10681	0.11307	-0.005188	0.033569	0.001526	-0.13229	-0.027618	-0.004578	-0.001221
38.529	0.007477	-0.005188	0.37521	0.016022	0.018616	-0.073395	-0.07309	0.003967	-0.023651	-0.1445	0.009613	0.006714	0.023651	-0.20416	0.010986	0.24826	0.081482	-0.20828	-0.12344	-0.046082	-0.045624	0.1326	0.029297	0.10086	-0.056458	-0.005493	0.023041	-0.001373	-0.098572	-0.056305	-0.006561	-0.002747
38.53	0.019226	0.00061	0.37064	0.007019	0.004578	-0.11307	-0.06424	0.000763	-0.028839	-0.24796	0.007477	-0.008545	0.007172	-0.39627	0.016785	0.17197	0.1265	-0.31448	-0.2214	-0.03891	-0.14603	0.14481	0.010223	-0.038605	-0.2887	-0.004883	-0.022583	-0.005035	0.032501	-0.078125	-0.001068	-0.017548
38.531	0.018768	0.026093	0.41061	0.010376	-0.010529	-0.10956	-0.05127	0.001831	-0.029755	-0.32181	0.01297	-0.011902	-0.02655	-0.46555	0.027924	-0.02533	0.09613	-0.29083	-0.26764	-0.020142	-0.16846	0.2153	-0.005646	-0.34668	-0.42267	-0.008545	0.018921	-0.005798	0.020142	-0.064392	-0.009155	-0.012512
38.532	0.021973	-0.003204	0.39383	0.013428	-0.021362	-0.10056	-0.050812	-0.007172	-0.015411	-0.36621	0.007172	-0.023499	-0.085602	-0.22324	0.063782	-0.19134	0.054016	-0.23651	-0.17212	0.019836	-0.10117	0.23941	-0.036011	-0.38193	-0.34332	-0.009766	0.043335	-0.004425	-0.016174	-0.084534	-0.000763	-0.011292
38.533	0.010071	0.006409	0.47348	0.011902	0.007935	-0.074615	-0.029907	-0.001526	-0.036621	-0.24536	0.01297	-0.016174	-0.19165	-0.034332	0.076141	-0.44479	0.039063	-0.041046	-0.22797	-0.058289	0.10544	0.13886	-0.075836	-0.11917	-0.31967	-0.008545	0.033875	-0.001068	-0.011902	-0.012665	-0.004425	-0.003662
38.534	0.008392	0.021515	0.46722	0.022125	0.021515	-0.021362	-0.026855	-0.000916	-0.03418	0.005951	0.016327	-0.007172	-0.18143	0.12497	0.083466	0.099945	0.027161	0.00946	-0.37323	-0.062561	0.20706	0.11536	-0.004578	0.000305	-0.28488	-0.007172	0.014343	0.000458	-0.00412	-0.0354	-0.005493	-0.014801
38.535	0.003357	-0.000153	0.40161	0.015106	0.00351	0.010529	-0.006561	0.006409	-0.037231	0.054321	0.015869	0.061646	-0.23377	0.21805	0.099182	-0.14435	0.013275	-0.083466	-0.27725	-0.1001	0.12894	0.096436	-0.10147	0.26504	-0.30624	-0.005798	0	-0.000916	0.002594	-0.041962	-0.00061	-0.012512
38.536	0.01236	0.013733	0.3627	0.019989	0.001678	-0.054016	-0.022278	-0.006409	-0.018768	0.1329	0.027313	0.19653	-0.32059	0.41931	0.061035	0.009308	-0.005341	-0.11185	-0.33493	-0.1413	-0.002441	0.095062	-0.063934	0.47531	-0.018768	-0.001221	0.082397	0.002136	0.026855	-0.010223	-0.001068	-0.002289
38.537	0.014801	0.045929	0.43106	0.012665	0.010986	-0.020294	-0.001373	-0.009155	-0.021667	0.29297	0.022736	-0.23926	-0.14999	1.398	0.035095	-0.57098	-0.01236	-0.094757	-0.37567	0.006256	-0.058746	0.09491	-0.042267	0.48614	0.29526	-0.000763	0.19012	-0.005341	0.050201	-0.019989	-0.002136	0.002289
38.538	0.006866	0.023193	0.39398	0.010529	0.027618	0.028229	-0.007019	-0.007629	-0.024872	0.30365	0.006409	0.47531	0.000458	1.9653	-0.001373	0.20981	0.069885	-0.026855	-0.34805	0.092163	-0.036469	0.016479	0.062866	0.23117	0.3923	-0.005951	0.31921	0.002594	0.032806	-0.024261	-0.002441	-0.002136
38.539	0.008698	0.03891	0.44907	-0.001068	0.017548	0.035858	0.000458	-0.007782	-0.021362	0.242	0.014191	0.3215	0.11185	0.86182	-0.028381	0.10361	0.11185	-0.07019	-0.22751	0.083618	0.036774	0.02655	0.063782	0.028229	0.20264	-0.00412	0.41779	-0.003967	-0.079041	-0.046234	-0.011444	0.001678
38.54	0.005035	0.012512	0.46173	0.012512	-0.008392	0.018921	0.023193	0.007629	-0.019684	0.21927	0.001831	-0.23529	0.31616	-0.2124	-0.028534	-1.1082	0.10742	-0.038757	-0.13504	0.048065	0.002289	0.10178	0.049286	-0.29907	0.23178	-0.001373	0.23117	0.001221	-0.1358	-0.091248	-0.000916	-0.003204
38.541	0.000153	0.045471	0.47318	0.005188	-0.020447	-0.017548	0.010071	0.002136	-0.014038	0.10834	0.002747	-0.043335	0.31464	-1.5091	-0.004578	0.93506	0.061951	-0.074158	-0.18829	0.052032	-0.17364	0.23789	-0.10391	-0.47592	0.24155	0.000458	-0.19699	-0.001678	0.16678	-0.10468	-0.000153	-0.000458
38.542	0.005188	0.034485	0.42313	-0.016022	-0.007172	-0.03479	0.040131	0.001831	-0.017242	0.074158	-0.011139	-0.060577	0.29846	-0.81039	0.02594	0.17395	0.02594	-0.17716	-0.233	0.016174	-0.21378	0.31647	-0.042877	-0.37476	0.16708	-0.001526	-0.20004	0.000305	0.13886	-0.1207	-0.000153	-0.001526
38.543	0.005188	0.060577	0.40375	0.005035	0.019226	-0.053864	0.022736	-0.00351	-0.010223	0.020447	0.032196	-0.084534	0.18372	-0.5127	-0.033569	-0.36484	0.014191	-0.091553	-0.38925	-0.039825	0.028229	0.32486	0.14297	-0.43701	0.073547	-0.002441	-0.48462	0.00061	0.005341	-0.11871	0.009613	-0.003967
38.544	0.014801	0.067596	0.34561	0.010071	0.022125	-0.04776	0.031281	0.001984	-0.012665	-0.01236	-0.027618	-0.12787	0.073547	-1.0521	-0.06012	0.14832	-0.010376	-0.070953	-0.31326	0.003204	0.14557	0.38589	0.20325	-0.51254	0.063629	0.000305	-0.53711	-0.003052	-0.016479	-0.087128	-0.005646	-0.006409
